<svg xmlns="http://www.w3.org/2000/svg" viewBox="0 0 24 24" width="24" height="24">
	<style>
		tspan { white-space:pre }
		.shp0 { fill: #000000 } 
	</style>
	<g id="icomoon-ignore">
	</g>
	<path id="Layer" class="shp0" d="M24,13.71v9c0,0.71 -0.58,1.29 -1.29,1.29h-12.86c-0.71,0 -1.29,-0.58 -1.29,-1.29v-2.14h-7.29c-0.71,0 -1.29,-0.58 -1.29,-1.29v-18c0,-0.71 0.58,-1.29 1.29,-1.29h14.57c0.71,0 1.29,0.58 1.29,1.29v4.39c0.17,0.11 0.33,0.23 0.48,0.38l5.46,5.46c0.51,0.51 0.91,1.49 0.91,2.2zM13.71,3v-0.86c0,-0.23 -0.2,-0.43 -0.43,-0.43h-9.43c-0.23,0 -0.43,0.2 -0.43,0.43v0.86c0,0.23 0.2,0.43 0.43,0.43h9.43c0.23,0 0.43,-0.2 0.43,-0.43zM10.29,22.29h12v-8.57h-5.57c-0.71,0 -1.29,-0.58 -1.29,-1.29v-5.57h-5.14zM17.14,12h4l-4,-4z" />
</svg>