<?xml version="1.0" encoding="iso-8859-1"?>
<!-- Generator: Adobe Illustrator 19.0.0, SVG Export Plug-In . SVG Version: 6.00 Build 0)  -->
<svg version="1.1" id="Layer_1" xmlns="http://www.w3.org/2000/svg" xmlns:xlink="http://www.w3.org/1999/xlink" x="0px" y="0px"
	 viewBox="0 0 464 464" style="enable-background:new 0 0 464 464;" xml:space="preserve">
<path style="fill:#66CEDB;" d="M0,432c0,17.672,14.328,32,32,32h400c17.672,0,32-14.328,32-32V160H0V432z"/>
<path style="fill:#E74C3C;" d="M432,32h-64H96H32C14.328,32,0,46.328,0,64v96h464V64C464,46.328,449.672,32,432,32z"/>
<path style="fill:#FFFFFF;" d="M96,72h-8c-13.256,0-24,10.744-24,24l0,0c0,13.256,10.744,24,24,24h48c13.256,0,24-10.744,24-24l0,0
	c0-13.256-10.744-24-24-24h-8H96z"/>
<path style="fill:#34495E;" d="M112,96L112,96c-8.84,0-16-7.16-16-16V16c0-8.84,7.16-16,16-16l0,0c8.84,0,16,7.16,16,16v64
	C128,88.84,120.84,96,112,96z"/>
<path style="fill:#FFFFFF;" d="M336,72h-8c-13.256,0-24,10.744-24,24l0,0c0,13.256,10.744,24,24,24h48c13.256,0,24-10.744,24-24l0,0
	c0-13.256-10.744-24-24-24h-8H336z"/>
<path style="fill:#34495E;" d="M352,96L352,96c-8.84,0-16-7.16-16-16V16c0-8.84,7.16-16,16-16l0,0c8.84,0,16,7.16,16,16v64
	C368,88.84,360.84,96,352,96z"/>
<g>
	<rect x="32" y="232" style="fill:#00BFC8;" width="64" height="64"/>
	<rect x="144" y="232" style="fill:#00BFC8;" width="64" height="64"/>
	<rect x="368" y="232" style="fill:#00BFC8;" width="64" height="64"/>
	<rect x="32" y="344" style="fill:#00BFC8;" width="64" height="64"/>
	<rect x="144" y="344" style="fill:#00BFC8;" width="64" height="64"/>
	<rect x="256" y="344" style="fill:#00BFC8;" width="64" height="64"/>
	<rect x="368" y="344" style="fill:#00BFC8;" width="64" height="64"/>
</g>
<polygon style="fill:#E74C3C;" points="280,299.312 250.344,269.656 261.656,258.344 280,276.688 322.344,234.344 333.656,245.656 
	"/>
<g>
	<rect x="424" y="184" style="fill:#00BFC8;" width="16" height="16"/>
	<rect x="392" y="184" style="fill:#00BFC8;" width="16" height="16"/>
	<rect x="360" y="184" style="fill:#00BFC8;" width="16" height="16"/>
</g>
<g>
</g>
<g>
</g>
<g>
</g>
<g>
</g>
<g>
</g>
<g>
</g>
<g>
</g>
<g>
</g>
<g>
</g>
<g>
</g>
<g>
</g>
<g>
</g>
<g>
</g>
<g>
</g>
<g>
</g>
</svg>
