<?xml version="1.0" encoding="iso-8859-1"?>
<!-- Generator: Adobe Illustrator 19.0.0, SVG Export Plug-In . SVG Version: 6.00 Build 0)  -->
<svg version="1.1" id="Layer_1" xmlns="http://www.w3.org/2000/svg" xmlns:xlink="http://www.w3.org/1999/xlink" x="0px" y="0px"
	 viewBox="0 0 491.52 491.52" style="enable-background:new 0 0 491.52 491.52;" xml:space="preserve">
<polygon style="fill:#64798A;" points="456.551,360.627 367.302,452.639 34.969,452.639 34.969,137.529 0.001,137.529 0.001,491.52 
	491.52,491.52 491.52,137.529 456.551,137.529 "/>
<rect x="34.964" y="117.862" style="fill:#D5D6DB;" width="421.581" height="344.627"/>
<polygon style="fill:#FFFFFF;" points="34.969,452.639 367.302,452.639 456.551,360.627 456.551,137.529 34.969,137.529 "/>
<g>
	<rect y="117.862" style="fill:#3A556A;" width="34.97" height="19.661"/>
	<rect x="456.55" y="117.862" style="fill:#3A556A;" width="34.97" height="19.661"/>
</g>
<g>
	<rect x="34.97" y="117.862" style="fill:#EBF0F3;" width="421.581" height="19.661"/>
	<polygon style="fill:#EBF0F3;" points="367.302,452.639 456.551,360.627 367.302,360.627 	"/>
</g>
<rect y="32.742" style="fill:#E56353;" width="491.52" height="92.672"/>
<g>
	<circle style="fill:#D15241;" cx="419.558" cy="57.324" r="17.213"/>
	<circle style="fill:#D15241;" cx="367.8" cy="57.324" r="17.213"/>
	<circle style="fill:#D15241;" cx="123.699" cy="57.324" r="17.213"/>
	<circle style="fill:#D15241;" cx="71.987" cy="57.324" r="17.213"/>
</g>
<path style="fill:#EBF0F3;" d="M407.415,12.145v45.181c0,6.695,5.442,12.143,12.144,12.143V0
	C412.857,0,407.415,5.449,407.415,12.145z"/>
<path style="fill:#E1E6E9;" d="M419.559,0v69.469c6.699,0,12.142-5.448,12.142-12.143V12.145C431.701,5.449,426.258,0,419.559,0z"/>
<path style="fill:#EBF0F3;" d="M355.657,12.145v45.181c0,6.695,5.443,12.143,12.144,12.143V0C361.1,0,355.657,5.449,355.657,12.145z
	"/>
<path style="fill:#E1E6E9;" d="M367.801,0v69.469c6.699,0,12.142-5.448,12.142-12.143V12.145C379.943,5.449,374.5,0,367.801,0z"/>
<path style="fill:#EBF0F3;" d="M111.579,12.145v45.181c0,6.695,5.443,12.143,12.144,12.143V0
	C117.022,0,111.579,5.449,111.579,12.145z"/>
<path style="fill:#E1E6E9;" d="M123.723,0v69.469c6.699,0,12.142-5.448,12.142-12.143V12.145C135.865,5.449,130.422,0,123.723,0z"/>
<path style="fill:#EBF0F3;" d="M59.821,12.145v45.181c0,6.695,5.443,12.143,12.144,12.143V0C65.264,0,59.821,5.449,59.821,12.145z"
	/>
<path style="fill:#E1E6E9;" d="M71.965,0v69.469c6.699,0,12.142-5.448,12.142-12.143V12.145C84.107,5.449,78.664,0,71.965,0z"/>
<g>
	<path style="fill:#E56353;" d="M203.64,299.216c10.474-10.753,17.664-19.555,21.58-26.4c3.907-6.846,5.866-14.04,5.866-21.581
		c0-13.411-4.608-23.995-13.834-31.747c-9.216-7.752-19.939-11.626-32.16-11.626c-12.23,0-22.214,2.443-29.961,7.33
		c-7.757,4.891-14.851,12.153-21.274,21.791l19.91,11.525c7.959-12.288,17.943-18.436,29.962-18.436
		c6.845,0,12.499,2.059,16.973,6.178c4.464,4.123,6.701,9.115,6.701,14.985c0,5.866-2.093,11.664-6.278,17.391
		c-4.196,5.731-11.251,13.617-21.168,23.678l-44.419,44.631v20.951h100.157v-23.678h-66.422L203.64,299.216z"/>
	<path style="fill:#E56353;" d="M343.185,277.007c-9.916-8.242-21.724-12.365-35.414-12.365c-7.824,0-14.803,1.679-20.947,5.03
		v-36.039h61.814v-22.42h-84.24v70.402l10.484,11.318c8.381-4.613,17.212-6.917,26.505-6.917c9.283,0,16.973,2.198,23.05,6.6
		c6.077,4.402,9.11,10.618,9.11,18.648c0,8.035-2.861,14.146-8.592,18.336c-5.731,4.19-12.087,6.283-19.066,6.283
		c-6.989,0-13.411-1.286-19.277-3.873c-5.866-2.583-9.745-4.642-11.626-6.182c-1.891-1.536-3.389-2.861-4.512-3.98l-13.2,18.019
		c11.74,13.133,27.455,19.695,47.145,19.695c15.091,0,27.802-4.642,38.141-13.934c10.33-9.288,15.504-20.986,15.504-35.098
		C358.066,296.423,353.103,285.248,343.185,277.007z"/>
</g>
<g>
</g>
<g>
</g>
<g>
</g>
<g>
</g>
<g>
</g>
<g>
</g>
<g>
</g>
<g>
</g>
<g>
</g>
<g>
</g>
<g>
</g>
<g>
</g>
<g>
</g>
<g>
</g>
<g>
</g>
</svg>
