<?xml version="1.0" encoding="UTF-8" standalone="no"?>
<!-- Generator: Adobe Illustrator 19.0.0, SVG Export Plug-In . SVG Version: 6.00 Build 0)  -->

<svg
   xmlns:dc="http://purl.org/dc/elements/1.1/"
   xmlns:cc="http://creativecommons.org/ns#"
   xmlns:rdf="http://www.w3.org/1999/02/22-rdf-syntax-ns#"
   xmlns:svg="http://www.w3.org/2000/svg"
   xmlns="http://www.w3.org/2000/svg"
   xmlns:sodipodi="http://sodipodi.sourceforge.net/DTD/sodipodi-0.dtd"
   xmlns:inkscape="http://www.inkscape.org/namespaces/inkscape"
   version="1.1"
   id="Layer_1"
   x="0px"
   y="0px"
   viewBox="0 0 491.52 491.52"
   style="enable-background:new 0 0 491.52 491.52;"
   xml:space="preserve"
   sodipodi:docname="month.svg"
   inkscape:version="0.92.2 (5c3e80d, 2017-08-06)"><metadata
     id="metadata3915"><rdf:RDF><cc:Work
         rdf:about=""><dc:format>image/svg+xml</dc:format><dc:type
           rdf:resource="http://purl.org/dc/dcmitype/StillImage" /><dc:title></dc:title></cc:Work></rdf:RDF></metadata><defs
     id="defs3913" /><sodipodi:namedview
     pagecolor="#ffffff"
     bordercolor="#666666"
     borderopacity="1"
     objecttolerance="10"
     gridtolerance="10"
     guidetolerance="10"
     inkscape:pageopacity="0"
     inkscape:pageshadow="2"
     inkscape:window-width="1098"
     inkscape:window-height="783"
     id="namedview3911"
     showgrid="false"
     inkscape:zoom="0.48014324"
     inkscape:cx="245.75999"
     inkscape:cy="245.75999"
     inkscape:window-x="702"
     inkscape:window-y="254"
     inkscape:window-maximized="0"
     inkscape:current-layer="Layer_1" /><polygon
     style="fill:#64798A;"
     points="456.551,360.627 367.302,452.639 34.969,452.639 34.969,137.529 0.001,137.529 0.001,491.52   491.52,491.52 491.52,137.529 456.551,137.529 "
     id="polygon3828" /><rect
     x="34.964"
     y="117.862"
     style="fill:#D5D6DB;"
     width="421.581"
     height="344.627"
     id="rect3830" /><polygon
     style="fill:#FFFFFF;"
     points="34.969,452.639 367.302,452.639 456.551,360.627 456.551,137.529 34.969,137.529 "
     id="polygon3832" /><g
     id="g3838"><rect
       y="117.862"
       style="fill:#3A556A;"
       width="34.97"
       height="19.661"
       id="rect3834" /><rect
       x="456.55"
       y="117.862"
       style="fill:#3A556A;"
       width="34.97"
       height="19.661"
       id="rect3836" /></g><g
     id="g3844"><rect
       x="34.97"
       y="117.862"
       style="fill:#EBF0F3;"
       width="421.581"
       height="19.661"
       id="rect3840" /><polygon
       style="fill:#EBF0F3;"
       points="367.302,452.639 456.551,360.627 367.302,360.627  "
       id="polygon3842" /></g><rect
     y="32.742"
     style="fill:#E56353;"
     width="491.52"
     height="92.672"
     id="rect3846" /><g
     id="g3856"><circle
       style="fill:#D15241;"
       cx="419.558"
       cy="57.324"
       r="17.213"
       id="circle3848" /><circle
       style="fill:#D15241;"
       cx="367.8"
       cy="57.324"
       r="17.213"
       id="circle3850" /><circle
       style="fill:#D15241;"
       cx="123.699"
       cy="57.324"
       r="17.213"
       id="circle3852" /><circle
       style="fill:#D15241;"
       cx="71.987"
       cy="57.324"
       r="17.213"
       id="circle3854" /></g><path
     style="fill:#EBF0F3;"
     d="M407.415,12.145v45.181c0,6.695,5.442,12.143,12.144,12.143V0  C412.857,0,407.415,5.449,407.415,12.145z"
     id="path3858" /><path
     style="fill:#E1E6E9;"
     d="M419.559,0v69.469c6.699,0,12.142-5.448,12.142-12.143V12.145C431.701,5.449,426.258,0,419.559,0z"
     id="path3860" /><path
     style="fill:#EBF0F3;"
     d="M355.657,12.145v45.181c0,6.695,5.443,12.143,12.144,12.143V0C361.1,0,355.657,5.449,355.657,12.145z  "
     id="path3862" /><path
     style="fill:#E1E6E9;"
     d="M367.801,0v69.469c6.699,0,12.142-5.448,12.142-12.143V12.145C379.943,5.449,374.5,0,367.801,0z"
     id="path3864" /><path
     style="fill:#EBF0F3;"
     d="M111.579,12.145v45.181c0,6.695,5.443,12.143,12.144,12.143V0  C117.022,0,111.579,5.449,111.579,12.145z"
     id="path3866" /><path
     style="fill:#E1E6E9;"
     d="M123.723,0v69.469c6.699,0,12.142-5.448,12.142-12.143V12.145C135.865,5.449,130.422,0,123.723,0z"
     id="path3868" /><path
     style="fill:#EBF0F3;"
     d="M59.821,12.145v45.181c0,6.695,5.443,12.143,12.144,12.143V0C65.264,0,59.821,5.449,59.821,12.145z"
     id="path3870" /><path
     style="fill:#E1E6E9;"
     d="M71.965,0v69.469c6.699,0,12.142-5.448,12.142-12.143V12.145C84.107,5.449,78.664,0,71.965,0z"
     id="path3872" /><g
     id="g3880" /><g
     id="g3882" /><g
     id="g3884" /><g
     id="g3886" /><g
     id="g3888" /><g
     id="g3890" /><g
     id="g3892" /><g
     id="g3894" /><g
     id="g3896" /><g
     id="g3898" /><g
     id="g3900" /><g
     id="g3902" /><g
     id="g3904" /><g
     id="g3906" /><g
     id="g3908" /><g
     transform="translate(38.018681,13.64914)"
     id="g4058"><rect
       x="187.65199"
       y="159.02699"
       transform="matrix(-1,-0.002,0.002,-1,413.1857,356.7232)"
       style="fill:#d5d6db"
       width="38.245998"
       height="38.245998"
       id="rect4054" /><rect
       x="256.255"
       y="159.131"
       transform="matrix(-1,-0.002,0.002,-1,550.3906,357.0735)"
       style="fill:#d5d6db"
       width="38.245998"
       height="38.245998"
       id="rect4056" /></g><rect
     x="-401.55267"
     y="-210.43092"
     transform="rotate(-179.88541)"
     style="fill:#e56353;stroke-width:1.00000203"
     width="38.246075"
     height="38.246075"
     id="rect4060" /><rect
     x="-127.05391"
     y="-272.81595"
     transform="rotate(-179.88541)"
     style="fill:#d5d6db;stroke-width:1.00000203"
     width="38.246075"
     height="38.246075"
     id="rect4062" /><rect
     x="-195.64667"
     y="-272.8382"
     transform="rotate(-179.88541)"
     style="fill:#44c4a1;stroke-width:1.00000203"
     width="38.246075"
     height="38.246075"
     id="rect4064" /><g
     transform="translate(38.018681,13.64914)"
     id="g4070"><rect
       x="187.524"
       y="221.439"
       transform="matrix(-1,-0.002,0.002,-1,412.8018,481.5479)"
       style="fill:#d5d6db"
       width="38.245998"
       height="38.245998"
       id="rect4066" /><rect
       x="256.15302"
       y="221.595"
       transform="matrix(-1,-0.002,0.002,-1,550.0577,482.0006)"
       style="fill:#d5d6db"
       width="38.245998"
       height="38.245998"
       id="rect4068" /></g><rect
     x="-401.5213"
     y="-272.84311"
     transform="rotate(-179.88541)"
     style="fill:#e56353;stroke-width:1.00000203"
     width="38.246075"
     height="38.246075"
     id="rect4072" /><g
     transform="translate(38.018681,13.64914)"
     id="g4082"><rect
       x="50.166"
       y="283.59601"
       transform="matrix(-1,-0.002,0.002,-1,137.9571,605.5798)"
       style="fill:#d5d6db"
       width="38.245998"
       height="38.245998"
       id="rect4074" /><rect
       x="118.784"
       y="283.75201"
       transform="matrix(-1,-0.002,0.002,-1,275.1925,606.0325)"
       style="fill:#d5d6db"
       width="38.245998"
       height="38.245998"
       id="rect4076" /><rect
       x="187.397"
       y="283.85199"
       transform="matrix(-1,-0.002,0.002,-1,412.418,606.3725)"
       style="fill:#d5d6db"
       width="38.245998"
       height="38.245998"
       id="rect4078" /><rect
       x="255.99899"
       y="284.008"
       transform="matrix(-1,-0.002,0.002,-1,549.6227,606.8252)"
       style="fill:#d5d6db"
       width="38.245998"
       height="38.245998"
       id="rect4080" /></g><rect
     x="-401.54248"
     y="-335.30301"
     transform="rotate(-179.88541)"
     style="fill:#e56353;stroke-width:1.00000203"
     width="38.246075"
     height="38.246075"
     id="rect4084" /><g
     transform="translate(38.018681,13.64914)"
     id="g4090"><rect
       x="50.037998"
       y="346.008"
       transform="matrix(-1,-0.002,0.002,-1,137.5733,730.4045)"
       style="fill:#d5d6db"
       width="38.245998"
       height="38.245998"
       id="rect4086" /><rect
       x="118.63"
       y="346.164"
       transform="matrix(-1,-0.002,0.002,-1,274.7575,730.8571)"
       style="fill:#d5d6db"
       width="38.245998"
       height="38.245998"
       id="rect4088" /></g><circle
     r="6.1240001"
     style="fill:#ffffff"
     cx="397.48169"
     cy="373.31613"
     id="ellipse4102" /></svg>