<?xml version="1.0" encoding="iso-8859-1"?>
<!-- Generator: Adobe Illustrator 19.0.0, SVG Export Plug-In . SVG Version: 6.00 Build 0)  -->
<svg version="1.1" id="Layer_1" xmlns="http://www.w3.org/2000/svg" xmlns:xlink="http://www.w3.org/1999/xlink" x="0px" y="0px"
	 viewBox="0 0 512 512" style="enable-background:new 0 0 512 512;" xml:space="preserve">
<g>
	<polygon style="fill:#ECF0F1;" points="0,512 512,512 512,105.931 0,105.931 	"/>
	<polygon style="fill:#35495E;" points="0,105.931 512,105.931 512,0 0,0 	"/>
	<g>
		<polygon style="fill:#FFFFFF;" points="44.138,70.621 132.414,70.621 132.414,35.31 44.138,35.31 		"/>
		<polygon style="fill:#FFFFFF;" points="211.862,70.621 300.138,70.621 300.138,35.31 211.862,35.31 		"/>
		<polygon style="fill:#FFFFFF;" points="379.586,70.621 467.862,70.621 467.862,35.31 379.586,35.31 		"/>
	</g>
	<g>
		<polygon style="fill:#E96360;" points="52.966,229.517 141.241,229.517 141.241,158.897 52.966,158.897 		"/>
		<polygon style="fill:#E96360;" points="52.966,344.276 141.241,344.276 141.241,273.655 52.966,273.655 		"/>
		<polygon style="fill:#E96360;" points="52.966,459.034 141.241,459.034 141.241,388.414 52.966,388.414 		"/>
		<polygon style="fill:#E96360;" points="211.862,229.517 300.138,229.517 300.138,158.897 211.862,158.897 		"/>
		<polygon style="fill:#E96360;" points="211.862,344.276 300.138,344.276 300.138,273.655 211.862,273.655 		"/>
		<polygon style="fill:#E96360;" points="211.862,459.034 300.138,459.034 300.138,388.414 211.862,388.414 		"/>
		<polygon style="fill:#E96360;" points="370.759,229.517 459.034,229.517 459.034,158.897 370.759,158.897 		"/>
		<polygon style="fill:#E96360;" points="370.759,344.276 459.034,344.276 459.034,273.655 370.759,273.655 		"/>
		<polygon style="fill:#E96360;" points="370.759,459.034 459.034,459.034 459.034,388.414 370.759,388.414 		"/>
	</g>
</g>
<g>
</g>
<g>
</g>
<g>
</g>
<g>
</g>
<g>
</g>
<g>
</g>
<g>
</g>
<g>
</g>
<g>
</g>
<g>
</g>
<g>
</g>
<g>
</g>
<g>
</g>
<g>
</g>
<g>
</g>
</svg>
