<svg xmlns="http://www.w3.org/2000/svg" viewBox="0 0 24 24" width="24" height="24">
	<style>
		tspan { white-space:pre }
		.shp0 { fill: #222f3e } 
	</style>
	<g id="icomoon-ignore">
	</g>
	<path id="Layer" class="shp0" d="M6.98,17.02v-10.03h10.03v10.03zM9,9v6h6v-6zM15,5.02v-2.02h2.02v2.02zM15,21v-2.02h2.02v2.02zM18.98,17.02v-2.02h2.02v2.02zM18.98,9v-2.02h2.02v2.02zM18.98,21v-2.02h2.02c0,1.08 -0.94,2.02 -2.02,2.02zM18.98,12.98v-1.97h2.02v1.97zM11.02,21v-2.02h1.97v2.02zM9,3v2.02h-2.02v-2.02zM3,17.02v-2.02h2.02v2.02zM5.02,21c-1.08,0 -2.02,-0.94 -2.02,-2.02h2.02zM18.98,3c1.08,0 2.02,0.94 2.02,2.02h-2.02zM12.98,3v2.02h-1.97v-2.02zM3,9v-2.02h2.02v2.02zM6.98,21v-2.02h2.02v2.02zM3,12.98v-1.97h2.02v1.97zM3,5.02c0,-1.08 0.94,-2.02 2.02,-2.02v2.02z" />
</svg>