<svg xmlns="http://www.w3.org/2000/svg" viewBox="0 0 24 24" width="24" height="24">
	<style>
		tspan { white-space:pre }
		.shp0 { fill: #222f3e } 
	</style>
	<g id="icomoon-ignore">
	</g>
	<path id="Layer" class="shp0" d="M10.06,6.71c0,0.36 -0.05,0.7 -0.13,1.03l12.88,9.02c0,0 -1.86,2.65 -4.51,0.8l-4.95,-3.68l-3.41,2.39c0.08,0.33 0.13,0.67 0.13,1.03c0,2.45 -1.98,4.43 -4.43,4.43c-2.45,0 -4.43,-1.98 -4.43,-4.43c0,-2.45 1.98,-4.43 4.43,-4.43c1.15,0 2.19,0.45 2.98,1.17l2.2,-2.03l0,0l-0.01,-0.01l-2.19,-2.02c-0.79,0.72 -1.83,1.17 -2.98,1.17c-2.45,0 -4.43,-1.98 -4.43,-4.43c0,-2.45 1.98,-4.43 4.43,-4.43c2.45,0 4.43,1.98 4.43,4.43zM7.79,6.71c0,-1.19 -0.97,-2.16 -2.16,-2.16c-1.19,0 -2.16,0.97 -2.16,2.16c0,1.19 0.97,2.16 2.16,2.16c1.19,0 2.16,-0.97 2.16,-2.16zM7.79,17.29c0,-1.19 -0.97,-2.16 -2.16,-2.16c-1.19,0 -2.16,0.97 -2.16,2.16c0,1.19 0.97,2.16 2.16,2.16c1.19,0 2.16,-0.97 2.16,-2.16zM22.8,7.25l-5.53,3.86l-2.82,-1.98l3.85,-2.68c2.65,-1.86 4.51,0.8 4.51,0.8z" />
</svg>